<svg width="28" height="20" viewBox="0 0 28 20" fill="none" xmlns="http://www.w3.org/2000/svg">
<path d="M16.5702 3.43457V13.0596H3.07024V3.43457H16.5702ZM3.07024 0.68457C1.58102 0.68457 0.370239 1.91777 0.370239 3.43457V13.0596C0.370239 14.5764 1.58102 15.8096 3.07024 15.8096H8.01883L7.56743 17.1846H4.42024C3.67352 17.1846 3.07024 17.799 3.07024 18.5596C3.07024 19.3201 3.67352 19.9346 4.42024 19.9346H15.2202C15.967 19.9346 16.5702 19.3201 16.5702 18.5596C16.5702 17.799 15.967 17.1846 15.2202 17.1846H12.0688L11.6174 15.8096H16.5702C18.0595 15.8096 19.2702 14.5764 19.2702 13.0596V3.43457C19.2702 1.91777 18.0595 0.68457 16.5702 0.68457H3.07024ZM22.6452 0.68457C21.5273 0.68457 20.6202 1.6084 20.6202 2.74707V17.8721C20.6202 19.0107 21.5273 19.9346 22.6452 19.9346H25.3452C26.4632 19.9346 27.3702 19.0107 27.3702 17.8721V2.74707C27.3702 1.6084 26.4632 0.68457 25.3452 0.68457H22.6452ZM23.3202 3.43457H24.6702C25.0415 3.43457 25.3452 3.74395 25.3452 4.12207C25.3452 4.5002 25.0415 4.80957 24.6702 4.80957H23.3202C22.949 4.80957 22.6452 4.5002 22.6452 4.12207C22.6452 3.74395 22.949 3.43457 23.3202 3.43457ZM22.6452 6.87207C22.6452 6.49395 22.949 6.18457 23.3202 6.18457H24.6702C25.0415 6.18457 25.3452 6.49395 25.3452 6.87207C25.3452 7.2502 25.0415 7.55957 24.6702 7.55957H23.3202C22.949 7.55957 22.6452 7.2502 22.6452 6.87207ZM23.9952 16.4971C23.2485 16.4971 22.6452 15.8826 22.6452 15.1221C22.6452 14.3615 23.2485 13.7471 23.9952 13.7471C24.742 13.7471 25.3452 14.3615 25.3452 15.1221C25.3452 15.8826 24.742 16.4971 23.9952 16.4971Z" fill="black"/>
</svg>
