<svg width="10" height="17" viewBox="0 0 10 17" fill="none" xmlns="http://www.w3.org/2000/svg">
<path d="M0.395691 11.6368C0.562191 13.5122 2.09782 14.8431 4.43557 15.0152V16.3832H5.60894V15.0152C8.16269 14.8138 9.74669 13.3975 9.74669 11.3027C9.74669 9.51396 8.68132 8.47896 6.42119 7.89621L5.60894 7.68583V3.40858C6.87119 3.53233 7.72282 4.21183 7.93769 5.22658H9.59144C9.40469 3.42658 7.85894 2.13508 5.60894 1.99221V0.633209H4.43557V2.02033C2.25419 2.27908 0.756816 3.67633 0.756816 5.57083C0.756816 7.20658 1.84357 8.36421 3.75044 8.85246L4.43669 9.03471V13.5696C3.14407 13.3783 2.25419 12.6696 2.03932 11.6368H0.395691ZM4.21057 7.32133C3.03719 7.02546 2.41057 6.39321 2.41057 5.50333C2.41057 4.44133 3.20257 3.65721 4.43557 3.44683V7.37871L4.21057 7.32133ZM6.00044 9.42733C7.44832 9.79071 8.08394 10.3937 8.08394 11.4175C8.08394 12.6516 7.15469 13.474 5.60894 13.5988V9.32946L6.00044 9.42621V9.42733Z" fill="white"/>
</svg>
