<svg width="21" height="15" viewBox="0 0 21 15" fill="none" xmlns="http://www.w3.org/2000/svg">
<path d="M10.7316 0.319183C6.14832 0.319183 2.23415 3.17002 0.648315 7.19418C2.23415 11.2184 6.14832 14.0692 10.7316 14.0692C15.315 14.0692 19.2291 11.2184 20.815 7.19418C19.2291 3.17002 15.315 0.319183 10.7316 0.319183ZM10.7316 11.7775C8.20165 11.7775 6.14832 9.72418 6.14832 7.19418C6.14832 4.66418 8.20165 2.61085 10.7316 2.61085C13.2616 2.61085 15.315 4.66418 15.315 7.19418C15.315 9.72418 13.2616 11.7775 10.7316 11.7775ZM10.7316 4.44418C9.20998 4.44418 7.98165 5.67252 7.98165 7.19418C7.98165 8.71585 9.20998 9.94418 10.7316 9.94418C12.2533 9.94418 13.4816 8.71585 13.4816 7.19418C13.4816 5.67252 12.2533 4.44418 10.7316 4.44418Z" fill="white"/>
</svg>
