<svg width="25" height="18" viewBox="0 0 25 18" fill="none" xmlns="http://www.w3.org/2000/svg">
<path d="M20.8702 15.5522C21.9702 15.5522 22.8602 14.6522 22.8602 13.5522L22.8702 2.55225C22.8702 1.45225 21.9702 0.552246 20.8702 0.552246H4.87024C3.77024 0.552246 2.87024 1.45225 2.87024 2.55225V13.5522C2.87024 14.6522 3.77024 15.5522 4.87024 15.5522H0.870239C0.870239 16.6522 1.77024 17.5522 2.87024 17.5522H22.8702C23.9702 17.5522 24.8702 16.6522 24.8702 15.5522H20.8702ZM4.87024 2.55225H20.8702V13.5522H4.87024V2.55225ZM12.8702 16.5522C12.3202 16.5522 11.8702 16.1022 11.8702 15.5522C11.8702 15.0022 12.3202 14.5522 12.8702 14.5522C13.4202 14.5522 13.8702 15.0022 13.8702 15.5522C13.8702 16.1022 13.4202 16.5522 12.8702 16.5522Z" fill="black"/>
</svg>
