<svg width="63" height="60" viewBox="0 0 63 60" fill="none" xmlns="http://www.w3.org/2000/svg">
<path d="M5.20655 38.4576C2.13382 33.3685 2.13382 26.9959 5.20655 21.9068L11.0575 12.2164C13.9561 7.41565 19.1553 4.48144 24.7633 4.48144L37.7277 4.48144C43.3357 4.48144 48.5349 7.41564 51.4336 12.2164L57.2845 21.9068C60.3572 26.9959 60.3572 33.3685 57.2845 38.4576L51.4336 48.1479C48.5349 52.9487 43.3357 55.8829 37.7277 55.8829L24.7633 55.8829C19.1553 55.8829 13.9561 52.9487 11.0575 48.1479L5.20655 38.4576Z" fill="#616161"/>
<path fill-rule="evenodd" clip-rule="evenodd" d="M22.7863 4.60337C27.6206 5.20339 31.963 7.98479 34.518 12.2164L40.3689 21.9067C43.4416 26.9958 43.4416 33.3685 40.3689 38.4576L34.518 48.1479C31.9635 52.3787 27.6223 55.1599 22.7892 55.7606C17.9549 55.1606 13.6125 52.3792 11.0575 48.1476L5.20665 38.4572C2.13392 33.3681 2.13392 26.9955 5.20665 21.9064L11.0575 12.2161C13.612 7.98528 17.9532 5.20414 22.7863 4.60337Z" fill="white"/>
</svg>
