<svg width="19" height="21" viewBox="0 0 19 21" fill="none" xmlns="http://www.w3.org/2000/svg">
<path d="M3.8257 15.3174L9.89134 18.8194C8.52725 19.8589 6.80863 20.3194 5.10752 20.1012C4.06797 18.7371 3.60747 17.0185 3.8257 15.3174ZM14.6522 15.5694L15.2502 18.5335L14.2867 20.2024L0.43032 12.2024L1.39382 10.5335L4.25987 9.56937L7.16237 4.5421C8.90387 1.52573 12.5544 0.21083 16.131 1.00793C18.6096 3.70683 19.2962 7.52573 17.5547 10.5421L14.6522 15.5694ZM11.3585 9.27415C11.8179 9.53936 12.3638 9.61123 12.8762 9.47395C13.3885 9.33666 13.8254 9.00146 14.0906 8.5421C14.3558 8.08273 14.4277 7.53682 14.2904 7.02446C14.1531 6.5121 13.8179 6.07526 13.3585 5.81005C12.8992 5.54483 12.3532 5.47296 11.8409 5.61024C11.3285 5.74753 10.8917 6.08273 10.6265 6.5421C10.3613 7.00146 10.2894 7.54738 10.4267 8.05973C10.564 8.57209 10.8992 9.00893 11.3585 9.27415Z" fill="white"/>
</svg>
