<svg width="20" height="25" viewBox="0 0 20 25" fill="none" xmlns="http://www.w3.org/2000/svg">
<path d="M17.3702 0.794678H3.37024C2.7072 0.794678 2.07131 1.05807 1.60247 1.52691C1.13363 1.99575 0.870239 2.63164 0.870239 3.29468V22.2947C0.870239 22.623 0.934904 22.9481 1.06054 23.2514C1.18618 23.5547 1.37033 23.8303 1.60247 24.0624C1.83462 24.2946 2.11022 24.4787 2.41353 24.6044C2.71684 24.73 3.04193 24.7947 3.37024 24.7947H17.3702C17.6985 24.7947 18.0236 24.73 18.3269 24.6044C18.6303 24.4787 18.9059 24.2946 19.138 24.0624C19.3702 23.8303 19.5543 23.5547 19.6799 23.2514C19.8056 22.9481 19.8702 22.623 19.8702 22.2947V3.29468C19.8702 2.63164 19.6068 1.99575 19.138 1.52691C18.6692 1.05807 18.0333 0.794678 17.3702 0.794678ZM10.3702 23.7947C9.54024 23.7947 8.87024 23.1247 8.87024 22.2947C8.87024 21.4647 9.54024 20.7947 10.3702 20.7947C11.2002 20.7947 11.8702 21.4647 11.8702 22.2947C11.8702 23.1247 11.2002 23.7947 10.3702 23.7947ZM17.8702 19.7947H2.87024V3.79468H17.8702V19.7947Z" fill="black"/>
</svg>
