<svg width="24" height="24" viewBox="0 0 24 24" fill="none" xmlns="http://www.w3.org/2000/svg">
<path d="M22.4585 10.807C22.1213 8.23462 20.8582 5.87334 18.9056 4.16513C16.953 2.45692 14.4448 1.5189 11.8504 1.52666C9.2561 1.53442 6.75351 2.48742 4.81115 4.20727C2.8688 5.92713 1.61982 8.29593 1.29803 10.8702C0.976243 13.4446 1.6037 16.0479 3.06294 18.193C4.52219 20.338 6.71318 21.8777 9.22579 22.5238C11.7384 23.17 14.4003 22.8782 16.7134 21.7032C19.0264 20.5282 20.8319 18.5505 21.7919 16.1403M22.4585 22.807V16.1403H15.7919" stroke="white" stroke-width="2" stroke-linecap="round" stroke-linejoin="round"/>
<path d="M11.8586 14.6026C13.2185 14.6026 14.3209 13.5002 14.3209 12.1403C14.3209 10.7804 13.2185 9.67798 11.8586 9.67798C10.4987 9.67798 9.39624 10.7804 9.39624 12.1403C9.39624 13.5002 10.4987 14.6026 11.8586 14.6026Z" fill="white"/>
</svg>
