<svg width="19" height="22" viewBox="0 0 19 22" fill="none" xmlns="http://www.w3.org/2000/svg">
<path d="M6.89148 2.01978V0.0197754H12.8915V2.01978H6.89148ZM8.89148 13.0198H10.8915V7.01978H8.89148V13.0198ZM9.89148 21.0198C8.65815 21.0198 7.49548 20.7824 6.40348 20.3078C5.31215 19.8324 4.35815 19.1864 3.54148 18.3698C2.72481 17.5531 2.07881 16.5991 1.60348 15.5078C1.12881 14.4158 0.891479 13.2531 0.891479 12.0198C0.891479 10.7864 1.12881 9.62378 1.60348 8.53178C2.07881 7.44044 2.72481 6.48644 3.54148 5.66978C4.35815 4.85311 5.31215 4.20744 6.40348 3.73278C7.49548 3.25744 8.65815 3.01978 9.89148 3.01978C10.9248 3.01978 11.9165 3.18644 12.8665 3.51978C13.8165 3.85311 14.7081 4.33644 15.5415 4.96978L16.9415 3.56978L18.3415 4.96978L16.9415 6.36978C17.5748 7.20311 18.0581 8.09478 18.3915 9.04478C18.7248 9.99477 18.8915 10.9864 18.8915 12.0198C18.8915 13.2531 18.6541 14.4158 18.1795 15.5078C17.7041 16.5991 17.0581 17.5531 16.2415 18.3698C15.4248 19.1864 14.4708 19.8324 13.3795 20.3078C12.2875 20.7824 11.1248 21.0198 9.89148 21.0198Z" fill="white"/>
</svg>
