<svg width="19" height="19" viewBox="0 0 19 19" fill="none" xmlns="http://www.w3.org/2000/svg">
<path fill-rule="evenodd" clip-rule="evenodd" d="M0.392578 3.2074C0.392578 2.41175 0.708649 1.64869 1.27126 1.08608C1.83387 0.523468 2.59693 0.207397 3.39258 0.207397H15.3926C16.1882 0.207397 16.9513 0.523468 17.5139 1.08608C18.0765 1.64869 18.3926 2.41175 18.3926 3.2074V15.2074C18.3926 16.003 18.0765 16.7661 17.5139 17.3287C16.9513 17.8913 16.1882 18.2074 15.3926 18.2074H3.39258C2.59693 18.2074 1.83387 17.8913 1.27126 17.3287C0.708649 16.7661 0.392578 16.003 0.392578 15.2074V3.2074ZM10.3926 5.2074C10.3926 4.94218 10.2872 4.68783 10.0997 4.50029C9.91215 4.31275 9.65779 4.2074 9.39258 4.2074C9.12736 4.2074 8.87301 4.31275 8.68547 4.50029C8.49794 4.68783 8.39258 4.94218 8.39258 5.2074V13.2074C8.39258 13.4726 8.49794 13.727 8.68547 13.9145C8.87301 14.102 9.12736 14.2074 9.39258 14.2074C9.65779 14.2074 9.91215 14.102 10.0997 13.9145C10.2872 13.727 10.3926 13.4726 10.3926 13.2074V5.2074ZM6.39258 8.2074C6.39258 7.94218 6.28722 7.68783 6.09968 7.50029C5.91215 7.31275 5.65779 7.2074 5.39258 7.2074C5.12736 7.2074 4.87301 7.31275 4.68547 7.50029C4.49794 7.68783 4.39258 7.94218 4.39258 8.2074V13.2074C4.39258 13.4726 4.49794 13.727 4.68547 13.9145C4.87301 14.102 5.12736 14.2074 5.39258 14.2074C5.65779 14.2074 5.91215 14.102 6.09968 13.9145C6.28722 13.727 6.39258 13.4726 6.39258 13.2074V8.2074ZM14.3926 11.2074C14.3926 10.9422 14.2872 10.6878 14.0997 10.5003C13.9121 10.3128 13.6578 10.2074 13.3926 10.2074C13.1274 10.2074 12.873 10.3128 12.6855 10.5003C12.4979 10.6878 12.3926 10.9422 12.3926 11.2074V13.2074C12.3926 13.4726 12.4979 13.727 12.6855 13.9145C12.873 14.102 13.1274 14.2074 13.3926 14.2074C13.6578 14.2074 13.9121 14.102 14.0997 13.9145C14.2872 13.727 14.3926 13.4726 14.3926 13.2074V11.2074Z" fill="#99B2C6"/>
</svg>
