<svg width="22" height="18" viewBox="0 0 22 18" fill="none" xmlns="http://www.w3.org/2000/svg">
<path d="M6.82904 8.63586C7.90648 8.63586 8.93979 8.20785 9.70166 7.44598C10.4635 6.68412 10.8915 5.65081 10.8915 4.57336C10.8915 3.49592 10.4635 2.46261 9.70166 1.70074C8.93979 0.938876 7.90648 0.510864 6.82904 0.510864C5.7516 0.510864 4.71829 0.938876 3.95642 1.70074C3.19455 2.46261 2.76654 3.49592 2.76654 4.57336C2.76654 5.65081 3.19455 6.68412 3.95642 7.44598C4.71829 8.20785 5.7516 8.63586 6.82904 8.63586ZM13.9378 15.0671C14.6003 15.3384 15.4428 15.5109 16.5153 15.5109C21.5153 15.5109 21.5153 11.7609 21.5153 11.7609C21.5153 11.2638 21.3179 10.7871 20.9666 10.4355C20.6152 10.0839 20.1386 9.8862 19.6415 9.88586H13.8565C14.3478 10.4809 14.6428 11.2421 14.6428 12.0734V12.5184C14.6402 12.6236 14.6331 12.7287 14.6215 12.8334C14.5372 13.6144 14.3044 14.3723 13.9378 15.0671ZM19.6415 5.51086C19.6415 6.33967 19.3123 7.13452 18.7262 7.72057C18.1402 8.30662 17.3453 8.63586 16.5165 8.63586C15.6877 8.63586 14.8929 8.30662 14.3068 7.72057C13.7208 7.13452 13.3915 6.33967 13.3915 5.51086C13.3915 4.68206 13.7208 3.88721 14.3068 3.30116C14.8929 2.7151 15.6877 2.38586 16.5165 2.38586C17.3453 2.38586 18.1402 2.7151 18.7262 3.30116C19.3123 3.88721 19.6415 4.68206 19.6415 5.51086ZM0.266541 12.3859C0.266541 11.7228 0.529933 11.0869 0.998773 10.6181C1.46761 10.1493 2.1035 9.88586 2.76654 9.88586H10.8915C11.5546 9.88586 12.1905 10.1493 12.6593 10.6181C13.1281 11.0869 13.3915 11.7228 13.3915 12.3859C13.3915 12.3859 13.3915 17.3859 6.82904 17.3859C0.266541 17.3859 0.266541 12.3859 0.266541 12.3859ZM14.6415 12.5184L14.6378 12.5984L14.6403 12.5184H14.6415Z" fill="#99B2C6"/>
</svg>
