<svg width="19" height="19" viewBox="0 0 19 19" fill="none" xmlns="http://www.w3.org/2000/svg">
<path d="M9.18213 0.131836C7.4021 0.131836 5.66204 0.659677 4.182 1.64861C2.70196 2.63754 1.54841 4.04315 0.867217 5.68769C0.186028 7.33222 0.00779846 9.14182 0.355065 10.8876C0.702332 12.6335 1.5595 14.2371 2.81817 15.4958C4.07684 16.7545 5.68049 17.6116 7.42632 17.9589C9.17215 18.3062 10.9817 18.1279 12.6263 17.4468C14.2708 16.7656 15.6764 15.612 16.6654 14.132C17.6543 12.6519 18.1821 10.9119 18.1821 9.13184C18.1821 8.67184 18.1421 8.21184 18.0821 7.77184C17.5825 8.47249 16.9223 9.0433 16.1567 9.43649C15.3912 9.82968 14.5427 10.0338 13.6821 10.0318C12.5373 10.0319 11.4221 9.66827 10.4973 8.99349C9.57254 8.31872 8.88598 7.36765 8.53667 6.27744C8.18736 5.18724 8.19336 4.01427 8.5538 2.92769C8.91424 1.84112 9.61049 0.897117 10.5421 0.231836C10.1021 0.171836 9.64213 0.131836 9.18213 0.131836Z" fill="#99B2C6"/>
</svg>
