<svg width="20" height="19" viewBox="0 0 20 19" fill="none" xmlns="http://www.w3.org/2000/svg">
<path d="M7.39107 13.7809V5.78088C7.39107 5.25045 7.60178 4.74174 7.97685 4.36667C8.35193 3.9916 8.86063 3.78088 9.39107 3.78088H18.3911V2.78088C18.3911 1.68088 17.4911 0.780884 16.3911 0.780884H2.39107C1.86063 0.780884 1.35193 0.991597 0.976854 1.36667C0.601781 1.74174 0.391068 2.25045 0.391068 2.78088V16.7809C0.391068 17.3113 0.601781 17.82 0.976854 18.1951C1.35193 18.5702 1.86063 18.7809 2.39107 18.7809H16.3911C17.4911 18.7809 18.3911 17.8809 18.3911 16.7809V15.7809H9.39107C8.86063 15.7809 8.35193 15.5702 7.97685 15.1951C7.60178 14.82 7.39107 14.3113 7.39107 13.7809ZM10.3911 5.78088C9.84107 5.78088 9.39107 6.23088 9.39107 6.78088V12.7809C9.39107 13.3309 9.84107 13.7809 10.3911 13.7809H19.3911V5.78088H10.3911ZM13.3911 11.2809C12.5611 11.2809 11.8911 10.6109 11.8911 9.78088C11.8911 8.95088 12.5611 8.28088 13.3911 8.28088C14.2211 8.28088 14.8911 8.95088 14.8911 9.78088C14.8911 10.6109 14.2211 11.2809 13.3911 11.2809Z" fill="#99B2C6"/>
</svg>
