<svg width="21" height="18" viewBox="0 0 21 18" fill="none" xmlns="http://www.w3.org/2000/svg">
<path d="M19.3761 0.446289H2.18864C1.77424 0.446289 1.37682 0.610909 1.08379 0.903935C0.790764 1.19696 0.626144 1.59439 0.626144 2.00879V16.0713C0.626144 16.4857 0.790764 16.8831 1.08379 17.1761C1.37682 17.4692 1.77424 17.6338 2.18864 17.6338H19.3761C19.7905 17.6338 20.188 17.4692 20.481 17.1761C20.774 16.8831 20.9386 16.4857 20.9386 16.0713V2.00879C20.9386 1.59439 20.774 1.19696 20.481 0.903935C20.188 0.610909 19.7905 0.446289 19.3761 0.446289ZM10.7824 9.82129C9.53919 9.82129 8.34691 9.32743 7.46783 8.44835C6.58875 7.56928 6.09489 6.37699 6.09489 5.13379C6.09489 4.92659 6.1772 4.72787 6.32372 4.58136C6.47023 4.43485 6.66894 4.35254 6.87614 4.35254C7.08334 4.35254 7.28206 4.43485 7.42857 4.58136C7.57508 4.72787 7.65739 4.92659 7.65739 5.13379C7.65739 5.96259 7.98663 6.75745 8.57269 7.3435C9.15874 7.92955 9.95359 8.25879 10.7824 8.25879C11.6112 8.25879 12.4061 7.92955 12.9921 7.3435C13.5782 6.75745 13.9074 5.96259 13.9074 5.13379C13.9074 4.92659 13.9897 4.72787 14.1362 4.58136C14.2827 4.43485 14.4814 4.35254 14.6886 4.35254C14.8958 4.35254 15.0946 4.43485 15.2411 4.58136C15.3876 4.72787 15.4699 4.92659 15.4699 5.13379C15.4699 6.37699 14.976 7.56928 14.097 8.44835C13.2179 9.32743 12.0256 9.82129 10.7824 9.82129Z" fill="#99B2C6"/>
</svg>
