<svg width="19" height="23" viewBox="0 0 19 23" fill="none" xmlns="http://www.w3.org/2000/svg">
<path d="M9.37797 8.4686C10.4919 8.4686 11.5602 8.02611 12.3478 7.23845C13.1355 6.4508 13.578 5.38251 13.578 4.2686C13.578 3.15469 13.1355 2.08641 12.3478 1.29876C11.5602 0.511102 10.4919 0.0686035 9.37797 0.0686035C8.26406 0.0686035 7.19578 0.511102 6.40812 1.29876C5.62047 2.08641 5.17797 3.15469 5.17797 4.2686C5.17797 5.38251 5.62047 6.4508 6.40812 7.23845C7.19578 8.02611 8.26406 8.4686 9.37797 8.4686ZM0.22897 17.5588C0.0990017 17.9062 0.0846624 18.2862 0.188086 18.6424C0.291509 18.9986 0.507167 19.3119 0.80297 19.5356C3.25484 21.4411 6.27274 22.4733 9.37797 22.4686C12.612 22.4686 15.5912 21.371 17.9614 19.5286C18.5634 19.0624 18.807 18.2644 18.5326 17.5546C17.8217 15.7038 16.5664 14.1121 14.9322 12.9895C13.2981 11.8669 11.3619 11.2662 9.37933 11.2667C7.39673 11.2671 5.46088 11.8687 3.82724 12.9921C2.19361 14.1154 0.938992 15.7077 0.22897 17.5588Z" fill="#99B2C6"/>
</svg>
