<svg width="21" height="20" viewBox="0 0 21 20" fill="none" xmlns="http://www.w3.org/2000/svg">
<path fill-rule="evenodd" clip-rule="evenodd" d="M20.6217 19.3454C20.4678 19.7038 20.1964 19.8344 19.8088 19.8245C19.0534 19.8057 18.2976 19.8193 17.5419 19.8186C17.0841 19.8181 16.8335 19.5693 16.8335 19.1131C16.8328 15.8739 16.8328 12.6342 16.8335 9.39407C16.8335 8.93738 17.0825 8.69034 17.5422 8.68943C18.298 8.6889 19.0538 8.70274 19.8092 8.68375C20.197 8.67381 20.4682 8.80444 20.6219 9.1628C20.6217 12.5575 20.6217 15.9516 20.6217 19.3453L20.6217 19.3454Z" fill="#99B2C6"/>
<path fill-rule="evenodd" clip-rule="evenodd" d="M20.6219 5.41341C20.5308 5.5389 20.4623 5.69491 20.3437 5.78419C19.9566 6.07581 19.4172 5.81454 19.3601 5.32114C19.2911 4.72727 19.225 4.13286 19.1166 3.50328C19.1013 3.53594 19.0896 3.57091 19.0703 3.60108C16.9633 6.88179 14.1012 9.31528 10.6553 11.0928C8.76144 12.0699 6.78973 12.8357 4.70116 13.283C3.60553 13.5178 2.4994 13.6632 1.37678 13.6538C1.21952 13.6522 1.05978 13.6451 0.905548 13.6163C0.64606 13.5684 0.511166 13.3758 0.41478 13.1492V12.8336C0.586769 12.4627 0.872697 12.3626 1.27632 12.3771C2.3789 12.4158 3.4683 12.2672 4.53858 12.0109C8.96554 10.9513 12.8254 8.88249 15.9652 5.54748C16.7651 4.69821 17.4673 3.77134 18.0858 2.7813C18.1234 2.72078 18.1573 2.65741 18.209 2.56671C18.1346 2.58074 18.0869 2.58624 18.0406 2.59937C17.3838 2.78592 16.7289 2.97902 16.0709 3.15866C15.5857 3.29125 15.1767 2.93627 15.2511 2.45561C15.291 2.19612 15.4494 2.02555 15.6964 1.95439C16.9325 1.59763 18.1698 1.2437 19.4086 0.896745C19.7837 0.791671 20.1433 1.04921 20.1885 1.4429C20.3227 2.59837 20.4519 3.75434 20.5847 4.90982C20.59 4.9604 20.6092 5.00939 20.6218 5.0589C20.6214 5.17694 20.6214 5.29514 20.6214 5.41353L20.6219 5.41341Z" fill="#99B2C6"/>
<path fill-rule="evenodd" clip-rule="evenodd" d="M0.414353 16.0298C0.567527 15.6708 0.837489 15.54 1.22636 15.5508C1.98744 15.5703 2.74974 15.5556 3.51136 15.5566C3.95047 15.5574 4.20324 15.8161 4.20324 16.259C4.20341 17.2112 4.20377 18.1631 4.2027 19.1155C4.20253 19.5677 3.94872 19.818 3.4922 19.819C2.73699 19.8196 1.98159 19.8062 1.22656 19.8244C0.83981 19.8332 0.567354 19.7051 0.414185 19.3453C0.414362 18.2401 0.414353 17.1352 0.414353 16.0298Z" fill="#99B2C6"/>
<path fill-rule="evenodd" clip-rule="evenodd" d="M15.1456 16.1088C15.1456 17.0953 15.1456 18.0823 15.1454 19.0688C15.1452 19.5859 14.9147 19.8182 14.4032 19.8187C13.6268 19.8187 12.8508 19.8193 12.0747 19.8182C11.607 19.8177 11.3571 19.5683 11.3571 19.0978C11.356 17.0986 11.3555 15.0986 11.3569 13.0996C11.3571 12.6578 11.6176 12.3989 12.0551 12.3989C12.8444 12.3983 13.6337 12.3973 14.423 12.3991C14.9076 12.3996 15.1459 12.6408 15.1461 13.1289C15.1472 14.1219 15.1463 15.1158 15.1463 16.1087H15.1456L15.1456 16.1088Z" fill="#99B2C6"/>
<path fill-rule="evenodd" clip-rule="evenodd" d="M5.89 17.2684C5.89 16.6569 5.88876 16.0453 5.89018 15.434C5.89142 14.9915 6.1447 14.7384 6.58914 14.7374C7.37134 14.7356 8.15373 14.7351 8.93625 14.7374C9.43093 14.739 9.67924 14.9873 9.67956 15.4766C9.67974 16.6731 9.67974 17.8697 9.67885 19.0662C9.67832 19.5786 9.44066 19.8184 8.93409 19.8189C8.1517 19.8189 7.36918 19.82 6.58698 19.8184C6.13988 19.8177 5.89137 19.569 5.89033 19.123C5.88891 18.5044 5.89 17.8865 5.89 17.2684Z" fill="#99B2C6"/>
</svg>
