<svg width="21" height="21" viewBox="0 0 21 21" fill="none" xmlns="http://www.w3.org/2000/svg">
<path d="M16.3638 15.117L20.6468 19.399L19.2318 20.814L14.9498 16.531C13.3565 17.8082 11.3748 18.5029 9.33276 18.5C4.36476 18.5 0.332764 14.468 0.332764 9.5C0.332764 4.532 4.36476 0.5 9.33276 0.5C14.3008 0.5 18.3328 4.532 18.3328 9.5C18.3357 11.542 17.641 13.5237 16.3638 15.117ZM14.3578 14.375C15.6269 13.0699 16.3356 11.3204 16.3328 9.5C16.3328 5.632 13.1998 2.5 9.33276 2.5C5.46476 2.5 2.33276 5.632 2.33276 9.5C2.33276 13.367 5.46476 16.5 9.33276 16.5C11.1532 16.5029 12.9026 15.7941 14.2078 14.525L14.3578 14.375Z" fill="#B8B8B8"/>
</svg>
