<svg width="21" height="21" viewBox="0 0 21 21" fill="none" xmlns="http://www.w3.org/2000/svg">
<path d="M11.2986 0.551882C11.5926 0.551882 11.8556 0.734882 11.9546 1.00888L12.6606 2.96588C12.9136 3.02888 13.1306 3.09188 13.3146 3.15788C13.5156 3.22988 13.7746 3.33888 14.0946 3.48788L15.7386 2.61788C15.8727 2.54679 16.0264 2.52113 16.1764 2.54475C16.3264 2.56837 16.4647 2.63999 16.5706 2.74888L18.0166 4.24388C18.2086 4.44288 18.2626 4.73388 18.1546 4.98788L17.3836 6.79488C17.5116 7.02988 17.6136 7.23088 17.6916 7.39888C17.7756 7.58188 17.8796 7.83388 18.0036 8.15888L19.8006 8.92888C20.0706 9.04388 20.2376 9.31388 20.2196 9.60288L20.0876 11.6779C20.0785 11.8127 20.0301 11.9419 19.9484 12.0494C19.8666 12.157 19.755 12.2381 19.6276 12.2829L17.9256 12.8879C17.8766 13.1229 17.8256 13.3239 17.7716 13.4939C17.6845 13.7564 17.585 14.0147 17.4736 14.2679L18.3286 16.1579C18.3889 16.2907 18.4051 16.4393 18.3749 16.582C18.3447 16.7247 18.2696 16.854 18.1606 16.9509L16.5346 18.4029C16.4275 18.4981 16.2938 18.5583 16.1516 18.5755C16.0093 18.5926 15.8652 18.5659 15.7386 18.4989L14.0626 17.6109C13.8003 17.7497 13.5298 17.8723 13.2526 17.9779L12.5206 18.2519L11.8706 20.0519C11.8224 20.1837 11.7355 20.2979 11.6213 20.3794C11.5071 20.461 11.3709 20.5061 11.2306 20.5089L9.33055 20.5519C9.18651 20.5557 9.04485 20.5147 8.92504 20.4347C8.80523 20.3546 8.71318 20.2394 8.66155 20.1049L7.89555 18.0779C7.6342 17.9886 7.37543 17.8919 7.11955 17.7879C6.91027 17.6973 6.70415 17.5996 6.50155 17.4949L4.60155 18.3069C4.47636 18.3603 4.33834 18.3762 4.20429 18.3525C4.07025 18.3289 3.94596 18.2669 3.84655 18.1739L2.44055 16.8549C2.33587 16.7571 2.26458 16.6289 2.23677 16.4884C2.20895 16.3479 2.22602 16.2022 2.28555 16.0719L3.10255 14.2919C2.9939 14.0811 2.89316 13.8662 2.80055 13.6479C2.69245 13.3806 2.59241 13.1102 2.50055 12.8369L0.710552 12.2919C0.565053 12.2479 0.438146 12.1571 0.349542 12.0336C0.260937 11.9101 0.215593 11.7608 0.220552 11.6089L0.290552 9.68788C0.295534 9.56254 0.334688 9.44095 0.40378 9.33626C0.472871 9.23156 0.56927 9.14775 0.682552 9.09388L2.56055 8.19188C2.64755 7.87288 2.72355 7.62488 2.79055 7.44388C2.88489 7.20213 2.98966 6.96457 3.10455 6.73188L2.29055 5.01188C2.22878 4.88126 2.21002 4.73442 2.23697 4.59247C2.26392 4.45052 2.3352 4.32077 2.44055 4.22188L3.84455 2.89588C3.94297 2.80305 4.06612 2.74064 4.19918 2.71616C4.33224 2.69168 4.46953 2.70617 4.59455 2.75788L6.49255 3.54188C6.70255 3.40188 6.89255 3.28888 7.06455 3.19788C7.26955 3.08888 7.54355 2.97488 7.88855 2.85188L8.54855 1.01088C8.59735 0.87615 8.68654 0.759763 8.80394 0.677613C8.92135 0.595463 9.06126 0.551554 9.20455 0.551882H11.2986ZM10.2446 7.57088C8.57755 7.57088 7.22655 8.90588 7.22655 10.5539C7.22655 12.2019 8.57755 13.5379 10.2446 13.5379C11.9106 13.5379 13.2616 12.2019 13.2616 10.5539C13.2616 8.90588 11.9116 7.57088 10.2446 7.57088Z" fill="#99B2C6"/>
</svg>
