<svg width="23" height="23" viewBox="0 0 23 23" fill="none" xmlns="http://www.w3.org/2000/svg">
<path d="M11.1821 17.1318C9.59083 17.1318 8.06471 16.4997 6.93949 15.3745C5.81427 14.2493 5.18213 12.7231 5.18213 11.1318C5.18213 9.54054 5.81427 8.01441 6.93949 6.8892C8.06471 5.76398 9.59083 5.13184 11.1821 5.13184C12.7734 5.13184 14.2996 5.76398 15.4248 6.8892C16.55 8.01441 17.1821 9.54054 17.1821 11.1318C17.1821 12.7231 16.55 14.2493 15.4248 15.3745C14.2996 16.4997 12.7734 17.1318 11.1821 17.1318ZM10.1821 0.131836H12.1821V3.13184H10.1821V0.131836ZM10.1821 19.1318H12.1821V22.1318H10.1821V19.1318ZM2.69713 4.06084L4.11113 2.64684L6.23213 4.76784L4.81813 6.18184L2.69713 4.06084ZM16.1321 17.4958L17.5461 16.0818L19.6671 18.2028L18.2531 19.6168L16.1321 17.4958ZM18.2531 2.64584L19.6671 4.06084L17.5461 6.18184L16.1321 4.76784L18.2531 2.64684V2.64584ZM4.81813 16.0818L6.23213 17.4958L4.11113 19.6168L2.69713 18.2028L4.81813 16.0818ZM22.1821 10.1318V12.1318H19.1821V10.1318H22.1821ZM3.18213 10.1318V12.1318H0.182129V10.1318H3.18213Z" fill="black"/>
</svg>
